<svg t="1713955902102" class="icon" viewBox="0 0 1024 1024" version="1.1" xmlns="http://www.w3.org/2000/svg" p-id="50501" width="200" height="200"><path d="M875.541 124.36c12.379 12.364 12.514 32.346 0.397 44.877l-0.371 0.377-51.574 51.633 95.588 95.193c12.433 12.383 12.558 32.435 0.373 44.971l-0.373 0.378-135.037 134.478c-12.486 12.435-32.676 12.435-45.162 0l-95.297-94.906L530.02 515.56c46.966 59.047 64.153 137.046 45.266 211.06l-0.661 2.534c-22.505 84.404-88.677 150.302-173.365 172.698-84.661 22.39-174.88-2.115-236.426-64.236l-0.239-0.244c-92.606-95.486-91.281-247.32 2.976-341.19 86.025-85.667 220.475-94.19 316.126-24.812l346.59-346.984c12.489-12.504 32.75-12.516 45.254-0.026zM463.298 537.326c-70.83-65.974-181.74-64.334-250.566 4.205-69.447 69.161-70.422 180.935-2.194 251.285l-0.065-0.068 1.195 1.191c44.477 43.941 108.687 61.7 169.51 46.982l1.841-0.456 1.878-0.486c62.51-16.53 111.307-65.127 127.888-127.314 16.576-62.158-1.566-128.4-47.56-173.596l0.994 0.987 0.211 0.209-0.236-0.209-0.383-0.351z m317.957-268.318l-89.687 89.317 70.395 70.106 89.688-89.317-70.396-70.106z" p-id="50502"></path></svg>